HIERARCHY
ROOT Hips
{
	OFFSET 0.00 0.00 0.00
	CHANNELS 6 Xposition Yposition Zposition Xrotation Yrotation Zrotation
	JOINT Spine
	{
		OFFSET 0.00000 7.06766 0.00000
		CHANNELS 3 Xrotation Yrotation Zrotation
		JOINT Head
		{
			OFFSET 0.00000 15.03989 0.00000
			CHANNELS 3 Xrotation Yrotation Zrotation
			End Site
			{
				OFFSET 0.00000 4.52755 0.00000
			}
		}
		JOINT LeftShoulder
		{
			OFFSET 0.00000 10.53037 0.00000
			CHANNELS 3 Xrotation Yrotation Zrotation
			JOINT LeftArm
			{
				OFFSET 7.02886 0.00000 0.00000
				CHANNELS 3 Xrotation Yrotation Zrotation
				JOINT LeftForeArm
				{
					OFFSET 10.79770 0.00000 0.00000
					CHANNELS 3 Yrotation Zrotation Xrotation
					JOINT LeftHand
					{
						OFFSET 7.90744 0.00000 0.00000
						CHANNELS 3 Xrotation Yrotation Zrotation
						JOINT LeftHandThumb1
						{
							OFFSET 0.00000 0.00000 0.00000
							CHANNELS 3 Xrotation Zrotation Yrotation
							End Site
							{
								OFFSET 0.00000 0.00000 3.93700
							}
						}
						End Site
						{
							OFFSET 3.93700 0.00000 0.00000
						}
					}
				}
			}
		}
		JOINT RightShoulder
		{
			OFFSET 0.00000 10.53037 0.00000
			CHANNELS 3 Xrotation Yrotation Zrotation
			JOINT RightArm
			{
				OFFSET -7.02886 0.00000 0.00000
				CHANNELS 3 Xrotation Yrotation Zrotation
				JOINT RightForeArm
				{
					OFFSET -10.79770 0.00000 0.00000
					CHANNELS 3 Yrotation Zrotation Xrotation
					JOINT RightHand
					{
						OFFSET -7.90744 0.00000 0.00000
						CHANNELS 3 Xrotation Yrotation Zrotation
						JOINT RightHandThumb1
						{
							OFFSET 0.00000 0.00000 0.00000
							CHANNELS 3 Xrotation Zrotation Yrotation
							End Site
							{
								OFFSET 0.00000 0.00000 3.93700
							}
						}
						End Site
						{
							OFFSET -3.93700 0.00000 0.00000
						}
					}
				}
			}
		}
	}
	JOINT LeftUpLeg
	{
		OFFSET 4.01300 0.00000 0.00000
		CHANNELS 3 Xrotation Yrotation Zrotation
		JOINT LeftLeg
		{
			OFFSET 0.00000 -16.89976 0.00000
			CHANNELS 3 Xrotation Yrotation Zrotation
			JOINT LeftFoot
			{
				OFFSET 0.00000 -17.38918 0.00000
				CHANNELS 3 Xrotation Yrotation Zrotation
				JOINT LeftToeBase
				{
					OFFSET 0.00000 -1.27456 4.75673
					CHANNELS 3 Xrotation Yrotation Zrotation
					End Site
					{
						OFFSET 0.00000 0.00000 2.95275
					}
				}
			}
		}
	}
	JOINT RightUpLeg
	{
		OFFSET -4.01300 0.00000 0.00000
		CHANNELS 3 Xrotation Yrotation Zrotation
		JOINT RightLeg
		{
			OFFSET 0.00000 -16.89976 0.00000
			CHANNELS 3 Xrotation Yrotation Zrotation
			JOINT RightFoot
			{
				OFFSET 0.00000 -17.38918 0.00000
				CHANNELS 3 Xrotation Yrotation Zrotation
				JOINT RightToeBase
				{
					OFFSET 0.00000 -1.27456 4.75673
					CHANNELS 3 Xrotation Yrotation Zrotation
					End Site
					{
						OFFSET 0.00000 0.00000 2.95275
					}
				}
			}
		}
	}
}
MOTION
Frames: 22
Frame Time: 0.008333
 18.5021 35.4820 -21.9425 171.1852 -2.0761 178.4426 -18.2471 -1.3346 0.7455 6.9645 -1.2429 1.9625 -38.6820 -1.2000 20.0765 2.2870 -0.3602 -7.7163 2.8867 0.0000 13.6015 1.0472 10.7135 -5.6157 33.1476 -0.0000 26.2537 -3.5810 -12.7063 -13.5058 -38.0719 -2.5135 8.4815 4.9018 -0.0000 38.4226 1.1770 -6.7347 9.9373 32.8623 0.0000 -24.3270 -1.0200 11.3553 1.1952 -6.7164 0.0000 -0.0000 -19.2615 30.6960 7.8967 27.1217 -0.0000 0.0000 -1.4531 -7.9716 1.0196 -3.6074 -0.0000 0.0000 -18.6539 -29.8849 -4.6138 24.0987 0.0000 -0.0000
 18.5038 35.4826 -21.9372 171.1940 -2.0788 178.4414 -18.2267 -1.3291 0.7430 6.9676 -1.2407 1.9788 -38.6832 -1.2200 20.0626 2.2816 -0.3546 -7.7327 2.8756 0.0000 13.5735 1.0364 10.7204 -5.5548 33.1476 -0.0000 26.2537 -3.5681 -12.7012 -13.5001 -38.0984 -2.5035 8.5015 4.8760 -0.0000 38.3808 1.1721 -6.6602 10.0048 32.8623 0.0000 -24.3270 -1.0245 11.3538 1.2000 -6.7110 -0.0000 0.0000 -19.2538 30.6889 7.9033 27.1098 0.0000 -0.0000 -1.4525 -7.9708 1.0238 -3.6084 -0.0000 -0.0000 -18.6326 -29.9003 -4.5950 23.9981 0.0000 -0.0000
 18.5040 35.4829 -21.9328 171.2070 -2.0831 178.4364 -18.2080 -1.2401 0.7514 6.9775 -1.3270 1.9953 -38.6779 -1.3023 19.9925 2.2980 -0.3594 -7.7522 2.8839 0.0000 13.5558 1.0364 10.7079 -5.5611 33.1476 -0.0000 26.2537 -3.5460 -12.7746 -13.4968 -38.1237 -2.4893 8.5075 4.8501 -0.0000 38.3830 1.1712 -6.6619 9.9947 32.8623 0.0000 -24.3270 -1.0232 11.3475 1.2057 -6.7057 0.0000 0.0000 -19.2566 30.6944 7.9120 27.1483 0.0000 -0.0000 -1.4495 -7.9833 1.0283 -3.5988 -0.0000 -0.0000 -18.6371 -29.8816 -4.6020 24.0646 -0.0000 -0.0000
 18.5053 35.4834 -21.9281 171.2169 -2.0885 178.4374 -18.1911 -1.2259 0.7465 6.9911 -1.3403 2.0022 -38.6584 -1.3075 19.9859 2.2875 -0.3850 -7.7878 2.8895 0.0000 13.5556 1.0330 10.7158 -5.5389 33.1476 -0.0000 26.2537 -3.5515 -12.7638 -13.5081 -38.1226 -2.5074 8.5335 4.8577 -0.0000 38.4147 1.1639 -6.6654 9.9280 32.8623 0.0000 -24.3270 -1.0234 11.3485 1.2055 -6.7023 0.0000 0.0000 -19.2469 30.6918 7.9004 27.1227 -0.0000 0.0000 -1.4414 -7.9934 1.0302 -3.6070 0.0000 -0.0000 -18.6139 -29.8808 -4.5825 24.0177 0.0000 -0.0000
 18.5065 35.4839 -21.9234 171.2240 -2.0982 178.4361 -18.1808 -1.2173 0.7437 7.0046 -1.3520 2.0115 -38.6652 -1.3280 19.9654 2.3189 -0.4044 -7.8070 2.8877 0.0000 13.5762 1.0407 10.7057 -5.5853 33.1476 -0.0000 26.2537 -3.5422 -12.7496 -13.5024 -38.1309 -2.5012 8.5401 4.8285 -0.0000 38.4310 1.1532 -6.6216 9.9027 32.8623 0.0000 -24.3270 -1.0323 11.3362 1.2107 -6.6896 0.0000 0.0000 -19.2406 30.6888 7.9127 27.1107 0.0000 -0.0000 -1.4410 -8.0027 1.0321 -3.6053 0.0000 0.0000 -18.6312 -29.8665 -4.6202 24.0900 0.0000 -0.0000
 18.5075 35.4843 -21.9183 171.2323 -2.1111 178.4347 -18.1625 -1.2134 0.7436 7.0031 -1.3665 2.0082 -38.6618 -1.3424 19.9437 2.3029 -0.4127 -7.8254 2.8876 0.0000 13.5998 1.0340 10.6838 -5.5604 33.1476 -0.0000 26.2537 -3.5465 -12.7381 -13.4997 -38.1014 -2.4874 8.5465 4.8159 -0.0000 38.3973 1.1444 -6.5636 9.9131 32.8623 0.0000 -24.3270 -1.0363 11.3253 1.2133 -6.6875 0.0000 0.0000 -19.2391 30.6906 7.9138 27.1625 -0.0000 0.0000 -1.4432 -8.0219 1.0345 -3.5977 0.0000 0.0000 -18.6259 -29.8643 -4.6139 24.0688 0.0000 -0.0000
 18.5087 35.4848 -21.9135 171.2348 -2.1079 178.4336 -18.1589 -1.1960 0.7431 7.0127 -1.3909 2.0127 -38.7029 -1.3962 19.9233 2.3106 -0.3549 -7.8366 2.8094 0.0000 13.6369 1.0294 10.6890 -5.5331 33.1476 -0.0000 26.2537 -3.5312 -12.7262 -13.4875 -38.1294 -2.4699 8.5555 4.7900 -0.0000 38.4133 1.1384 -6.5422 9.8937 32.8623 0.0000 -24.3270 -1.0450 11.3427 1.2169 -6.6869 -0.0000 0.0000 -19.2293 30.6932 7.9083 26.9374 -0.0000 0.0000 -1.4465 -8.0139 1.0371 -3.6022 -0.0000 0.0000 -18.6168 -29.8666 -4.6104 24.0795 -0.0000 0.0000
 18.5099 35.4853 -21.9086 171.2424 -2.1085 178.4341 -18.1458 -1.1860 0.7454 7.0235 -1.3944 2.0007 -38.7077 -1.4081 19.8776 2.3084 -0.3777 -7.8186 2.8395 0.0000 13.6369 1.0069 10.6588 -5.4282 33.1476 -0.0000 26.2537 -3.5477 -12.7065 -13.4937 -38.1249 -2.4693 8.5739 4.8164 -0.0000 38.3932 1.1658 -6.6850 9.9154 32.8623 0.0000 -24.3270 -1.0486 11.3432 1.2181 -6.6758 -0.0000 -0.0000 -19.2235 30.6768 7.9019 27.1061 0.0000 -0.0000 -1.4483 -8.0168 1.0382 -3.5979 -0.0000 -0.0000 -18.6101 -29.8626 -4.6011 24.0260 -0.0000 0.0000
 18.5099 35.4856 -21.9047 171.2534 -2.1028 178.4398 -18.1308 -1.1628 0.7445 7.0186 -1.4262 1.9893 -38.6971 -1.4247 19.8570 2.3066 -0.3769 -7.8337 2.8225 0.0000 13.6483 1.0130 10.6513 -5.4648 33.1476 -0.0000 26.2537 -3.5299 -12.7005 -13.4884 -38.1605 -2.4630 8.5818 4.8244 -0.0000 38.3538 1.1732 -6.7120 9.9384 32.8623 0.0000 -24.3270 -1.0473 11.3489 1.2139 -6.6676 0.0000 0.0000 -19.2236 30.6759 7.8939 27.1629 -0.0000 0.0000 -1.4510 -8.0254 1.0319 -3.5872 0.0000 0.0000 -18.6037 -29.8519 -4.5810 24.0088 -0.0000 -0.0000
 18.5110 35.4860 -21.8999 171.2524 -2.1001 178.4372 -18.1301 -1.1490 0.7464 7.0186 -1.4528 1.9831 -38.6985 -1.4390 19.8479 2.3122 -0.3893 -7.8574 2.8182 0.0000 13.6421 1.0036 10.6518 -5.4138 33.1476 -0.0000 26.2537 -3.4981 -12.6950 -13.4816 -38.1810 -2.4503 8.5995 4.8231 -0.0000 38.3677 1.1726 -6.7025 9.9468 32.8623 0.0000 -24.3270 -1.0566 11.3569 1.2173 -6.6684 0.0000 0.0000 -19.2224 30.6671 7.9027 27.1816 0.0000 0.0000 -1.4587 -8.0164 1.0355 -3.5901 -0.0000 -0.0000 -18.5919 -29.8519 -4.5773 24.0257 -0.0000 0.0000
 18.5120 35.4862 -21.8952 171.2543 -2.0914 178.4373 -18.1235 -1.1426 0.7480 7.0160 -1.4461 1.9754 -38.6902 -1.4372 19.8382 2.3208 -0.4031 -7.8648 2.8235 0.0000 13.6106 0.9998 10.6442 -5.3975 33.1476 -0.0000 26.2537 -3.4940 -12.6726 -13.4838 -38.2051 -2.4462 8.6201 4.8298 -0.0000 38.4073 1.1702 -6.6779 9.9624 32.8623 0.0000 -24.3270 -1.0613 11.3665 1.2190 -6.6703 0.0000 0.0000 -19.2127 30.6719 7.8840 27.1891 0.0000 -0.0000 -1.4725 -8.0065 1.0343 -3.5738 -0.0000 -0.0000 -18.6046 -29.8353 -4.5970 24.0919 -0.0000 0.0000
 18.5132 35.4861 -21.8909 171.2575 -2.0929 178.4411 -18.1175 -1.1261 0.7360 7.0136 -1.4969 1.9647 -38.6691 -1.4432 19.8396 2.3319 -0.4297 -7.8923 2.8212 0.0000 13.5881 1.0006 10.6652 -5.3911 33.1476 -0.0000 26.2537 -3.4848 -12.6595 -13.4755 -38.1880 -2.4388 8.6278 4.8211 -0.0000 38.4290 1.1590 -6.6107 9.9670 32.8623 0.0000 -24.3270 -1.0696 11.3705 1.2184 -6.6614 -0.0000 -0.0000 -19.2105 30.6587 7.8926 27.1928 -0.0000 0.0000 -1.4779 -8.0088 1.0323 -3.5730 0.0000 0.0000 -18.6002 -29.8460 -4.5918 24.0325 -0.0000 -0.0000
 18.5148 35.4867 -21.8880 171.2714 -2.0771 178.4390 -18.1022 -1.1081 0.7409 7.0006 -1.5032 1.9586 -38.6530 -1.4419 19.8438 2.3321 -0.4477 -7.9173 2.8321 0.0000 13.5502 0.9921 10.6934 -5.3316 33.1476 -0.0000 26.2537 -3.4795 -12.6576 -13.4666 -38.1854 -2.4002 8.6465 4.8084 -0.0000 38.4392 1.1482 -6.5394 9.9814 32.8623 0.0000 -24.3270 -1.0561 11.3958 1.2229 -6.6692 -0.0000 -0.0000 -19.1995 30.6520 7.8812 27.1613 0.0000 -0.0000 -1.4756 -7.9818 1.0370 -3.5624 0.0000 -0.0000 -18.5996 -29.8538 -4.5926 24.0292 -0.0000 0.0000
 18.5153 35.4873 -21.8835 171.2731 -2.0713 178.4388 -18.0958 -1.1053 0.7463 6.9898 -1.4903 1.9428 -38.6263 -1.4241 19.8294 2.3300 -0.4686 -7.9157 2.8466 0.0000 13.5292 0.9925 10.6729 -5.3440 33.1476 -0.0000 26.2537 -3.4627 -12.6680 -13.4617 -38.2545 -2.3532 8.6825 4.7989 -0.0000 38.5001 1.1520 -6.5676 9.9717 32.8623 0.0000 -24.3270 -1.0598 11.4000 1.2236 -6.6723 -0.0000 0.0000 -19.1901 30.6519 7.8754 27.2008 -0.0000 0.0000 -1.4826 -7.9585 1.0372 -3.5615 0.0000 0.0000 -18.5963 -29.8815 -4.5901 24.0119 0.0000 -0.0000
 18.5165 35.4880 -21.8784 171.2765 -2.0715 178.4418 -18.0867 -1.1058 0.7399 6.9714 -1.4814 1.9393 -38.6211 -1.4250 19.8260 2.3164 -0.4725 -7.9225 2.8469 0.0000 13.5363 0.9985 10.6914 -5.3671 33.1476 -0.0000 26.2537 -3.4505 -12.6451 -13.4400 -38.2361 -2.3189 8.6791 4.7669 -0.0000 38.4706 1.1468 -6.5656 9.9303 32.8623 0.0000 -24.3270 -1.0695 11.4003 1.2232 -6.6639 -0.0000 0.0000 -19.1845 30.6620 7.8627 27.1576 -0.0000 0.0000 -1.4907 -7.9676 1.0363 -3.5556 0.0000 0.0000 -18.5892 -29.8637 -4.6071 24.0589 0.0000 -0.0000
 18.5169 35.4884 -21.8727 171.2724 -2.0698 178.4359 -18.0852 -1.1060 0.7569 6.9551 -1.4660 1.9149 -38.6144 -1.4214 19.8093 2.3290 -0.4759 -7.9287 2.8595 0.0000 13.5076 1.0025 10.6991 -5.3846 33.1476 -0.0000 26.2537 -3.4592 -12.6188 -13.4600 -38.2336 -2.3278 8.7042 4.7952 -0.0000 38.5034 1.1559 -6.6192 9.9283 32.8623 0.0000 -24.3270 -1.0897 11.4028 1.2301 -6.6535 -0.0000 -0.0000 -19.1882 30.6568 7.8754 27.1603 -0.0000 0.0000 -1.5043 -7.9422 1.0420 -3.5553 0.0000 0.0000 -18.5725 -29.9004 -4.5726 24.0062 0.0000 0.0000
 18.5168 35.4889 -21.8680 171.2765 -2.0752 178.4386 -18.0747 -1.0977 0.7558 6.9402 -1.4501 1.9083 -38.6156 -1.4323 19.7940 2.3325 -0.4742 -7.9372 2.8613 0.0000 13.4725 1.0030 10.7092 -5.3824 33.1476 -0.0000 26.2537 -3.4307 -12.6267 -13.4514 -38.3103 -2.2957 8.7216 4.7647 -0.0000 38.5306 1.1559 -6.6292 9.9143 32.8623 0.0000 -24.3270 -1.0972 11.4034 1.2267 -6.6439 -0.0000 -0.0000 -19.1850 30.6382 7.8839 27.2010 -0.0000 0.0000 -1.5102 -7.9438 1.0379 -3.5495 0.0000 0.0000 -18.5719 -29.8864 -4.5950 23.9902 -0.0000 0.0000
 18.5176 35.4891 -21.8640 171.2792 -2.0677 178.4398 -18.0665 -1.0928 0.7579 6.9147 -1.4570 1.8902 -38.6076 -1.4325 19.8010 2.3304 -0.4661 -7.9611 2.8544 0.0000 13.5056 1.0082 10.6076 -5.4611 33.1476 -0.0000 26.2537 -3.4223 -12.6027 -13.4416 -38.2891 -2.2802 8.7234 4.7853 -0.0000 38.4739 1.1691 -6.6908 9.9346 32.8623 0.0000 -24.3270 -1.1012 11.4123 1.2270 -6.6452 0.0000 0.0000 -19.1833 30.6436 7.8810 27.2119 0.0000 -0.0000 -1.5154 -7.9163 1.0379 -3.5491 -0.0000 -0.0000 -18.5767 -29.9115 -4.6161 24.0047 -0.0000 0.0000
 18.5184 35.4897 -21.8598 171.2854 -2.0700 178.4394 -18.0525 -1.0848 0.7634 6.8973 -1.4387 1.8706 -38.5801 -1.4170 19.7752 2.3217 -0.4757 -7.9548 2.8488 0.0000 13.4930 1.0109 10.5865 -5.4860 33.1476 -0.0000 26.2537 -3.4128 -12.5956 -13.4386 -38.2227 -2.2545 8.7331 4.7772 -0.0000 38.4459 1.1677 -6.7015 9.9075 32.8623 0.0000 -24.3270 -1.1068 11.4028 1.2294 -6.6359 0.0000 -0.0000 -19.1778 30.6536 7.8808 27.1768 -0.0000 -0.0000 -1.5196 -7.9221 1.0397 -3.5411 -0.0000 -0.0000 -18.5758 -29.9068 -4.5987 23.9982 0.0000 0.0000
 18.5196 35.4892 -21.8556 171.2892 -2.0689 178.4467 -18.0407 -1.0749 0.7467 6.8727 -1.4551 1.8622 -38.5780 -1.4263 19.7871 2.3329 -0.4707 -7.9794 2.8379 0.0000 13.5017 1.0038 10.5715 -5.4553 33.1476 -0.0000 26.2537 -3.4195 -12.5869 -13.4180 -38.1980 -2.2223 8.7350 4.7643 -0.0000 38.4407 1.1615 -6.6693 9.9024 32.8623 0.0000 -24.3270 -1.1119 11.4111 1.2241 -6.6314 0.0000 0.0000 -19.1799 30.6499 7.8851 27.1934 0.0000 -0.0000 -1.5247 -7.9266 1.0337 -3.5385 0.0000 0.0000 -18.5882 -29.8897 -4.6305 24.0209 -0.0000 0.0000
 18.5201 35.4898 -21.8515 171.2937 -2.0734 178.4408 -18.0303 -1.0781 0.7594 6.8548 -1.4300 1.8546 -38.5839 -1.4198 19.7701 2.3518 -0.4703 -7.9847 2.8383 0.0000 13.5144 0.9939 10.5375 -5.4191 33.1476 -0.0000 26.2537 -3.4282 -12.5519 -13.4275 -38.1414 -2.2345 8.7392 4.7828 -0.0000 38.4720 1.1533 -6.6308 9.8893 32.8623 0.0000 -24.3270 -1.1170 11.3958 1.2309 -6.6304 -0.0000 0.0000 -19.1805 30.6621 7.8778 27.1986 -0.0000 0.0000 -1.5286 -7.9308 1.0397 -3.5331 0.0000 0.0000 -18.5804 -29.8993 -4.6245 24.0554 0.0000 -0.0000
 18.5201 35.4903 -21.8478 171.2968 -2.0782 178.4445 -18.0217 -1.0757 0.7607 6.8340 -1.4208 1.8381 -38.5837 -1.4118 19.7534 2.3672 -0.4720 -7.9918 2.8384 0.0000 13.4981 0.9879 10.5263 -5.3923 33.1476 -0.0000 26.2537 -3.3958 -12.5594 -13.4120 -38.1285 -2.1946 8.7504 4.7810 -0.0000 38.4785 1.1457 -6.6059 9.8619 32.8623 0.0000 -24.3270 -1.1270 11.3907 1.2286 -6.6147 -0.0000 -0.0000 -19.1764 30.6575 7.8807 27.2109 -0.0000 0.0000 -1.5364 -7.9379 1.0361 -3.5250 0.0000 0.0000 -18.5829 -29.8985 -4.6294 24.0535 -0.0000 0.0000
